<?xml version="1.0" encoding="utf-8"?>
<!-- Generator: Adobe Illustrator 19.2.1, SVG Export Plug-In . SVG Version: 6.00 Build 0)  -->
<svg version="1.1" id="Layer_1" xmlns="http://www.w3.org/2000/svg" xmlns:xlink="http://www.w3.org/1999/xlink" x="0px" y="0px"
	 viewBox="0 0 24 24" style="enable-background:new 0 0 24 24;" xml:space="preserve">
<style type="text/css">
	.st0{fill:#444444;}
	.st1{fill:none;stroke:#444444;stroke-width:2;stroke-linecap:round;stroke-linejoin:round;stroke-miterlimit:10;}
</style>
<g transform="translate(0, 0)">
	<path class="st0" d="M7.3,19.7c0.4,0.4,1,0.4,1.4,0l2.3-2.3V23c0,0.6,0.4,1,1,1s1-0.4,1-1v-5.6l2.3,2.3c0.4,0.4,1,0.4,1.4,0
		s0.4-1,0-1.4l-4-4c-0.1-0.1-0.2-0.2-0.3-0.2C12.3,14,12.1,14,12,14s-0.3,0-0.4,0.1c-0.1,0.1-0.2,0.1-0.3,0.2l-4,4
		C6.9,18.7,6.9,19.3,7.3,19.7z"/>
	<path class="st0" d="M7.3,5.7l4,4c0.1,0.1,0.2,0.2,0.3,0.2c0.2,0.1,0.5,0.1,0.8,0c0.1-0.1,0.2-0.1,0.3-0.2l4-4c0.4-0.4,0.4-1,0-1.4
		s-1-0.4-1.4,0L13,6.6V1c0-0.6-0.4-1-1-1s-1,0.4-1,1v5.6L8.7,4.3C8.5,4.1,8.3,4,8,4S7.5,4.1,7.3,4.3C6.9,4.7,6.9,5.3,7.3,5.7z"/>
	<line class="st1" x1="21" y1="12" x2="3" y2="12"/>
</g>
</svg>
