<svg class="nc-icon glyph" xmlns="http://www.w3.org/2000/svg" xmlns:xlink="http://www.w3.org/1999/xlink" x="0px" y="0px" width="24px" height="24px" viewBox="0 0 24 24"><g>
<path fill="#444444" d="M23,5h-3V1c0-0.6-0.4-1-1-1H5C4.4,0,4,0.4,4,1v4H1C0.4,5,0,5.4,0,6v12c0,0.6,0.4,1,1,1h3v4c0,0.6,0.4,1,1,1
	h14c0.6,0,1-0.4,1-1v-4h3c0.6,0,1-0.4,1-1V6C24,5.4,23.6,5,23,5z M6,2h12v3H6V2z M18,22H6v-9h12V22z"></path>
<rect data-color="color-2" x="8" y="15" fill="#444444" width="8" height="2"></rect>
<rect data-color="color-2" x="8" y="18" fill="#444444" width="8" height="2"></rect>
</g></svg>