<?xml version="1.0" encoding="utf-8"?>
<!-- Generator: Adobe Illustrator 19.2.1, SVG Export Plug-In . SVG Version: 6.00 Build 0)  -->
<svg version="1.1" id="Layer_1" xmlns="http://www.w3.org/2000/svg" xmlns:xlink="http://www.w3.org/1999/xlink" x="0px" y="0px"
	 viewBox="0 0 24 24" style="enable-background:new 0 0 24 24;" xml:space="preserve">
<style type="text/css">
	.st0{fill:#444444;}
</style>
<g>
	<path class="st0" d="M15,24c-0.4,0-0.7-0.2-0.9-0.6l-3-5.9c-0.2-0.3-0.1-0.7,0.1-1L16,10l-6.5,4.8c-0.3,0.2-0.7,0.2-1,0.1l-5.9-3
		C2.2,11.7,2,11.3,2,10.9c0-0.4,0.3-0.7,0.7-0.9l19-7c0.4-0.1,0.8,0,1.1,0.2C23,3.6,23.1,4,22.9,4.3l-7,19C15.8,23.7,15.5,24,15,24
		C15,24,15,24,15,24z"/>
</g>
</svg>
