<svg class="nc-icon outline" xmlns="http://www.w3.org/2000/svg" xmlns:xlink="http://www.w3.org/1999/xlink" x="0px" y="0px" width="24px" height="24px" viewBox="0 0 24 24">
<g transform="translate(0, 0)">
<path data-cap="butt" data-color="color-2" fill="none" stroke="#444444" stroke-width="2" stroke-miterlimit="10" d="M8.7,15L3,18.4
	c-0.6,0.4-1,1-1,1.7V23h20v-2.9c0-0.7-0.4-1.4-1-1.7L15.3,15" stroke-linejoin="round" stroke-linecap="round"></path>
<path data-cap="butt" fill="none" stroke="#444444" stroke-width="2" stroke-miterlimit="10" d="M6,7.8C7,8.5,8.2,9,9.5,9
	c2.2,0,4.1-1.3,5-3.2c0.7,1.5,1.9,2.6,3.5,3" stroke-linejoin="round" stroke-linecap="round"></path>
<path fill="none" stroke="#444444" stroke-width="2" stroke-linecap="round" stroke-miterlimit="10" d="M12,16L12,16
	c-3.3,0-6-2.7-6-6V7c0-3.3,2.7-6,6-6h0c3.3,0,6,2.7,6,6v3C18,13.3,15.3,16,12,16z" stroke-linejoin="round"></path>
</g>
</svg>