<?xml version="1.0" encoding="utf-8"?>
<!-- Generator: Adobe Illustrator 19.2.1, SVG Export Plug-In . SVG Version: 6.00 Build 0)  -->
<svg version="1.1" id="Layer_1" xmlns="http://www.w3.org/2000/svg" xmlns:xlink="http://www.w3.org/1999/xlink" x="0px" y="0px"
	 viewBox="0 0 24 24" style="enable-background:new 0 0 24 24;" xml:space="preserve">
<style type="text/css">
	.st0{fill:#444444;}
</style>
<g>
	<path class="st0" d="M0,11c0,0.3,0,0.6,0,0.9c0,0,0,0,0,0L0,13l6,0c0.4,0,0.7-0.2,0.9-0.6L9,8.2l5.1,10.2c0.2,0.4,0.5,0.6,0.9,0.6
		s0.7-0.2,0.9-0.6l2.7-5.4h5.2c0-0.3,0.1-0.7,0.1-1.1c0-0.3,0-0.6,0-0.9H18c-0.4,0-0.7,0.3-0.9,0.6L15,15.8L9.9,5.6
		c-0.4-0.7-1.5-0.7-1.8,0L5.4,11L0,11"/>
</g>
</svg>
